<mxfile host="app.diagrams.net" modified="2024-06-21T11:20:32.932Z" agent="Mozilla/5.0 (Windows NT 10.0; Win64; x64) AppleWebKit/537.36 (KHTML, like Gecko) Chrome/126.0.0.0 Safari/537.36" etag="nVUK_l9GdKUt9HCc1ktY" version="24.4.2" type="github">
  <diagram name="Page-1" id="XVw_b_xDwHnGz9wbEkJs">
    <mxGraphModel dx="989" dy="514" grid="1" gridSize="10" guides="1" tooltips="1" connect="1" arrows="1" fold="1" page="1" pageScale="1" pageWidth="850" pageHeight="1100" math="0" shadow="0">
      <root>
        <mxCell id="0" />
        <mxCell id="1" parent="0" />
        <mxCell id="C2USvB88JjmjtFxqJm_b-17" style="edgeStyle=orthogonalEdgeStyle;rounded=0;orthogonalLoop=1;jettySize=auto;html=1;exitX=1;exitY=0.75;exitDx=0;exitDy=0;" edge="1" parent="1" source="VxlyHngNLBUcSf7zy6Bm-1">
          <mxGeometry relative="1" as="geometry">
            <mxPoint x="679.9999999999998" y="179.79310344827593" as="targetPoint" />
          </mxGeometry>
        </mxCell>
        <mxCell id="VxlyHngNLBUcSf7zy6Bm-1" value="Forsíða&lt;div&gt;Dagskrá/Tilboð&lt;/div&gt;" style="rounded=0;whiteSpace=wrap;html=1;" parent="1" vertex="1">
          <mxGeometry x="280" y="120" width="160" height="80" as="geometry" />
        </mxCell>
        <mxCell id="VxlyHngNLBUcSf7zy6Bm-3" value="Tölvupóstur" style="whiteSpace=wrap;html=1;aspect=fixed;" parent="1" vertex="1">
          <mxGeometry x="120" y="480" width="80" height="80" as="geometry" />
        </mxCell>
        <mxCell id="VxlyHngNLBUcSf7zy6Bm-4" value="DB" style="shape=cylinder3;whiteSpace=wrap;html=1;boundedLbl=1;backgroundOutline=1;size=15;" parent="1" vertex="1">
          <mxGeometry x="530" y="480" width="60" height="80" as="geometry" />
        </mxCell>
        <mxCell id="C2USvB88JjmjtFxqJm_b-15" style="edgeStyle=orthogonalEdgeStyle;rounded=0;orthogonalLoop=1;jettySize=auto;html=1;exitX=0.5;exitY=1;exitDx=0;exitDy=0;entryX=0.5;entryY=0;entryDx=0;entryDy=0;" edge="1" parent="1" source="Jqyqml2Vst-oy_76xLtx-1" target="Jqyqml2Vst-oy_76xLtx-3">
          <mxGeometry relative="1" as="geometry" />
        </mxCell>
        <mxCell id="Jqyqml2Vst-oy_76xLtx-1" value="Pöntunarsíða&lt;br&gt;Form" style="rounded=0;whiteSpace=wrap;html=1;" parent="1" vertex="1">
          <mxGeometry x="480" y="240" width="160" height="80" as="geometry" />
        </mxCell>
        <mxCell id="C2USvB88JjmjtFxqJm_b-13" style="edgeStyle=orthogonalEdgeStyle;rounded=0;orthogonalLoop=1;jettySize=auto;html=1;exitX=0.5;exitY=1;exitDx=0;exitDy=0;entryX=0.5;entryY=0;entryDx=0;entryDy=0;" edge="1" parent="1" source="Jqyqml2Vst-oy_76xLtx-2" target="C2USvB88JjmjtFxqJm_b-5">
          <mxGeometry relative="1" as="geometry" />
        </mxCell>
        <mxCell id="Jqyqml2Vst-oy_76xLtx-2" value="Um okkur&lt;br&gt;Hafðu samband" style="rounded=0;whiteSpace=wrap;html=1;" parent="1" vertex="1">
          <mxGeometry x="80" y="240" width="160" height="80" as="geometry" />
        </mxCell>
        <mxCell id="Jqyqml2Vst-oy_76xLtx-3" value="Validation" style="rhombus;whiteSpace=wrap;html=1;" parent="1" vertex="1">
          <mxGeometry x="520" y="360" width="80" height="80" as="geometry" />
        </mxCell>
        <mxCell id="Jqyqml2Vst-oy_76xLtx-4" value="Takk fyrir" style="rounded=0;whiteSpace=wrap;html=1;" parent="1" vertex="1">
          <mxGeometry x="280" y="360" width="160" height="80" as="geometry" />
        </mxCell>
        <mxCell id="C2USvB88JjmjtFxqJm_b-1" value="" style="endArrow=classic;html=1;rounded=0;entryX=0.5;entryY=1;entryDx=0;entryDy=0;" edge="1" parent="1" target="VxlyHngNLBUcSf7zy6Bm-1">
          <mxGeometry width="50" height="50" relative="1" as="geometry">
            <mxPoint x="360" y="360" as="sourcePoint" />
            <mxPoint x="360" y="210" as="targetPoint" />
          </mxGeometry>
        </mxCell>
        <mxCell id="C2USvB88JjmjtFxqJm_b-2" value="" style="edgeStyle=segmentEdgeStyle;endArrow=classic;html=1;curved=0;rounded=0;endSize=8;startSize=8;entryX=0.5;entryY=0;entryDx=0;entryDy=0;" edge="1" parent="1" target="Jqyqml2Vst-oy_76xLtx-1">
          <mxGeometry width="50" height="50" relative="1" as="geometry">
            <mxPoint x="440" y="160" as="sourcePoint" />
            <mxPoint x="560" y="230" as="targetPoint" />
            <Array as="points">
              <mxPoint x="560" y="160" />
            </Array>
          </mxGeometry>
        </mxCell>
        <mxCell id="C2USvB88JjmjtFxqJm_b-4" value="" style="endArrow=classic;html=1;rounded=0;entryX=1;entryY=0.5;entryDx=0;entryDy=0;" edge="1" parent="1" target="Jqyqml2Vst-oy_76xLtx-4">
          <mxGeometry width="50" height="50" relative="1" as="geometry">
            <mxPoint x="520" y="399.5" as="sourcePoint" />
            <mxPoint x="450" y="400" as="targetPoint" />
          </mxGeometry>
        </mxCell>
        <mxCell id="C2USvB88JjmjtFxqJm_b-5" value="Validation" style="rhombus;whiteSpace=wrap;html=1;" vertex="1" parent="1">
          <mxGeometry x="120" y="360" width="80" height="80" as="geometry" />
        </mxCell>
        <mxCell id="C2USvB88JjmjtFxqJm_b-6" value="" style="endArrow=classic;html=1;rounded=0;exitX=1;exitY=0.5;exitDx=0;exitDy=0;entryX=0;entryY=0.5;entryDx=0;entryDy=0;" edge="1" parent="1" source="C2USvB88JjmjtFxqJm_b-5" target="Jqyqml2Vst-oy_76xLtx-4">
          <mxGeometry width="50" height="50" relative="1" as="geometry">
            <mxPoint x="260" y="399.5" as="sourcePoint" />
            <mxPoint x="270" y="400" as="targetPoint" />
          </mxGeometry>
        </mxCell>
        <mxCell id="C2USvB88JjmjtFxqJm_b-7" value="" style="edgeStyle=segmentEdgeStyle;endArrow=classic;html=1;curved=0;rounded=0;endSize=8;startSize=8;exitX=0;exitY=0.5;exitDx=0;exitDy=0;entryX=0.5;entryY=0;entryDx=0;entryDy=0;" edge="1" parent="1" source="VxlyHngNLBUcSf7zy6Bm-1" target="Jqyqml2Vst-oy_76xLtx-2">
          <mxGeometry width="50" height="50" relative="1" as="geometry">
            <mxPoint x="230" y="160" as="sourcePoint" />
            <mxPoint x="160" y="230" as="targetPoint" />
            <Array as="points">
              <mxPoint x="160" y="160" />
            </Array>
          </mxGeometry>
        </mxCell>
        <mxCell id="C2USvB88JjmjtFxqJm_b-8" value="" style="endArrow=classic;html=1;rounded=0;entryX=0.5;entryY=0;entryDx=0;entryDy=0;" edge="1" parent="1" target="VxlyHngNLBUcSf7zy6Bm-3">
          <mxGeometry width="50" height="50" relative="1" as="geometry">
            <mxPoint x="159.5" y="440" as="sourcePoint" />
            <mxPoint x="160" y="470" as="targetPoint" />
          </mxGeometry>
        </mxCell>
        <mxCell id="C2USvB88JjmjtFxqJm_b-11" value="" style="endArrow=classic;html=1;rounded=0;" edge="1" parent="1" target="VxlyHngNLBUcSf7zy6Bm-4">
          <mxGeometry width="50" height="50" relative="1" as="geometry">
            <mxPoint x="559.5" y="440" as="sourcePoint" />
            <mxPoint x="559.5" y="490" as="targetPoint" />
          </mxGeometry>
        </mxCell>
        <mxCell id="C2USvB88JjmjtFxqJm_b-19" value="Spjallbox" style="shape=ext;double=1;rounded=0;whiteSpace=wrap;html=1;" vertex="1" parent="1">
          <mxGeometry x="680" y="150" width="70" height="50" as="geometry" />
        </mxCell>
        <mxCell id="C2USvB88JjmjtFxqJm_b-22" value="" style="endArrow=classic;html=1;rounded=0;edgeStyle=orthogonalEdgeStyle;exitX=0.5;exitY=1;exitDx=0;exitDy=0;" edge="1" parent="1" source="C2USvB88JjmjtFxqJm_b-19" target="VxlyHngNLBUcSf7zy6Bm-4">
          <mxGeometry width="50" height="50" relative="1" as="geometry">
            <mxPoint x="715" y="241" as="sourcePoint" />
            <mxPoint x="570" y="490" as="targetPoint" />
            <Array as="points">
              <mxPoint x="715" y="520" />
            </Array>
          </mxGeometry>
        </mxCell>
        <mxCell id="C2USvB88JjmjtFxqJm_b-25" value="ChatGPT" style="rhombus;whiteSpace=wrap;html=1;" vertex="1" parent="1">
          <mxGeometry x="675" y="480" width="80" height="80" as="geometry" />
        </mxCell>
        <mxCell id="C2USvB88JjmjtFxqJm_b-26" value="" style="endArrow=none;dashed=1;html=1;dashPattern=1 3;strokeWidth=2;rounded=0;" edge="1" parent="1">
          <mxGeometry width="50" height="50" relative="1" as="geometry">
            <mxPoint x="80" y="460" as="sourcePoint" />
            <mxPoint x="760" y="460" as="targetPoint" />
          </mxGeometry>
        </mxCell>
      </root>
    </mxGraphModel>
  </diagram>
</mxfile>
